# xmcd CD database file
#
# Track frame offsets:
#	150
#	11030
#	22233
#	32466
#	41809
#	50402
#	60043
#	70026
#	80357
#	92249
#	103924
#	115149
#	128059
#	139653
#	152094
#	161694
#	171506
#	184276
#	196420
#	205682
#	216459
#	226981
#	237213
#	248082
#	261878
#	273722
#
# Disc length: 3813 seconds
#
# Revision: 0
# Processed by: cddbd v1.5.2PL0 Copyright (c) Steve Scherf et al.
# Submitted via: CDex 1.70beta2
#
DISCID=750ee31a
DTITLE=Dolly Parton and Porter Wagoner - Just between you and me CD 2
DYEAR=2014
DGENRE=Country
TTITLE0=Just someone I used to know
TTITLE1=No reason to hurry home
TTITLE2=Milwaukee, here I come
TTITLE3=The house where love lives
TTITLE4=Why don't you haul off and love me
TTITLE5=Mendy never sleeps
TTITLE6=I don't believe you've met my baby
TTITLE7=Anything's better than nothing
TTITLE8=Always, always
TTITLE9=My hands are tied
TTITLE10=There never was a time
TTITLE11=Forty miles from Poplar Bluff
TTITLE12=Each season changes you
TTITLE13=Daddy was an old time preacher man
TTITLE14=Tangled vines
TTITLE15=We can't let this happen to us
TTITLE16=Tomorrow is forever
TTITLE17=Silver sandals
TTITLE18=No love left
TTITLE19=I'm wasting your time and you're wasting mine
TTITLE20=Run that by me one more time
TTITLE21=It might as well be me
TTITLE22=I know you're married but I love you still
TTITLE23=Daddy was an old time preacher man
TTITLE24=Fight and scratch
TTITLE25=A good understanding
EXTD=YEAR: 2014
EXTT0=
EXTT1=
EXTT2=
EXTT3=
EXTT4=
EXTT5=
EXTT6=
EXTT7=
EXTT8=
EXTT9=
EXTT10=
EXTT11=
EXTT12=
EXTT13=
EXTT14=
EXTT15=
EXTT16=
EXTT17=
EXTT18=
EXTT19=
EXTT20=
EXTT21=
EXTT22=
EXTT23=
EXTT24=
EXTT25=
PLAYORDER=
